<?xml version="1.0" encoding="UTF-8"?>
<svg width="289px" height="138px" viewBox="0 0 289 138" version="1.1" xmlns="http://www.w3.org/2000/svg" xmlns:xlink="http://www.w3.org/1999/xlink">
    <!-- Generator: Sketch 58 (84663) - https://sketch.com -->
    <title>arduino</title>
    <desc>Created with Sketch.</desc>
    <g id="Page-1" stroke="none" stroke-width="1" fill="none" fill-rule="evenodd">
        <g id="arduino" fill="#00979D" fill-rule="nonzero">
            <path d="M288.2,69.2 C288.2,31.4 256.3,0.7 217.2,0.7 C213.6,0.7 209.9,0.9 206.3,1.5 C175.9,5.8 155.5,27.7 144.1,44.5 C132.7,27.7 112.3,5.8 81.9,1.5 C78.3,1 74.6,0.7 71,0.7 C31.8,0.7 -5.68434189e-14,31.4 -5.68434189e-14,69.2 C-5.68434189e-14,107 31.9,137.7 71,137.7 C74.6,137.7 78.3,137.5 82,136.9 C112.4,132.5 132.8,110.6 144.2,93.8 C155.6,110.6 176,132.5 206.4,136.9 C210,137.4 213.7,137.7 217.4,137.7 C256.3,137.7 288.2,107 288.2,69.2 M78.4,112.9 C75.9,113.3 73.4,113.4 70.9,113.4 C45.1,113.4 24.2,93.5 24.2,69.2 C24.2,44.8 45.2,25 71,25 C73.5,25 76,25.2 78.5,25.5 C107.2,29.6 124.7,57.9 130.7,69.2 C124.6,80.6 107,108.8 78.4,112.9 M157.5,69.2 C163.4,57.9 181,29.6 209.7,25.5 C212.2,25.2 214.7,25 217.2,25 C243,25 263.9,44.9 263.9,69.2 C263.9,93.6 242.9,113.4 217.2,113.4 C214.7,113.4 212.2,113.2 209.7,112.9 C181,108.8 163.4,80.5 157.5,69.2" id="Shape"></path>
            <path d="M51.3,62.5 L94,62.5 L94,76.2 L51.3,76.2 L51.3,62.5 Z M221.9,76.3 L236.3,76.3 L236.3,62.5 L221.9,62.5 L221.9,48.1 L208.1,48.1 L208.1,62.5 L193.7,62.5 L193.7,76.3 L208.1,76.3 L208.1,90.7 L221.9,90.7 L221.9,76.3 Z M274.7,12.4 C274.7,8.9 277.5,6 280.9,6 C284.4,6 287.2,8.9 287.2,12.4 C287.2,16.1 284.4,18.8 280.9,18.8 C277.5,18.8 274.7,15.9 274.7,12.4 Z M286.1,12.4 C286.1,9.5 283.9,7 280.9,7 C277.9,7 275.8,9.2 275.8,12.4 C275.8,15.7 278.2,17.8 280.9,17.8 C283.9,17.8 286.1,15.7 286.1,12.4 Z M277.9,8.4 L281,8.4 C283.4,8.4 284.3,9.4 284.3,11.1 C284.3,12.2 283.8,13 282.8,13.4 L284.3,16.4 L282.1,16.4 L281,13.7 L279.9,13.7 L279.9,16.4 L277.9,16.4 L277.9,8.4 Z M280.8,12.3 C281.7,12.3 282.2,12 282.2,11 C282.2,10.1 281.9,9.8 280.8,9.8 L279.8,9.8 L279.8,12.4 L280.8,12.3 Z" id="Shape"></path>
        </g>
    </g>
</svg>