<?xml version="1.0" encoding="utf-8"?>
<!-- Generator: Adobe Illustrator 19.0.0, SVG Export Plug-In . SVG Version: 6.00 Build 0)  -->
<svg version="1.1" id="Layer_1" xmlns="http://www.w3.org/2000/svg" xmlns:xlink="http://www.w3.org/1999/xlink" x="0px" y="0px"
	 viewBox="-389 111 500 500" style="enable-background:new -389 111 500 500;" xml:space="preserve">
<style type="text/css">
	.st0{fill:#B2B4B6;}
	.st1{fill:#B2B4B7;}
	.st2{fill:#B3B5B8;}
	.st3{fill:#B4B6B8;}
	.st4{fill:#B5B7B9;}
	.st5{fill:#B6B8BA;}
	.st6{fill:#B7B9BB;}
	.st7{fill:#B7B9BC;}
	.st8{fill:#B8BABC;}
	.st9{fill:#B9BBBD;}
	.st10{fill:#BABCBE;}
	.st11{fill:#BBBDBF;}
	.st12{fill:#BCBDC0;}
	.st13{fill:#BCBEC0;}
	.st14{fill:#BDBFC1;}
	.st15{fill:#BEC0C2;}
	.st16{fill:#BFC1C3;}
	.st17{fill:#C0C2C4;}
	.st18{fill:#C1C2C4;}
	.st19{fill:#C1C3C5;}
	.st20{fill:#C2C4C6;}
	.st21{fill:#C3C5C7;}
	.st22{fill:#C4C6C8;}
	.st23{fill:#C5C6C8;}
	.st24{fill:#C5C7C9;}
	.st25{fill:#C6C8CA;}
	.st26{fill:#C7C9CB;}
	.st27{fill:#C8CACC;}
	.st28{fill:#C9CBCC;}
	.st29{fill:#CACBCD;}
	.st30{fill:#CBCCCE;}
	.st31{fill:#CBCDCF;}
	.st32{fill:#CCCED0;}
	.st33{fill:#CDCFD0;}
	.st34{fill:#CECFD1;}
	.st35{fill:#CFD0D2;}
	.st36{fill:#D0D1D3;}
	.st37{fill:#D0D2D3;}
	.st38{fill:#D1D3D4;}
	.st39{fill:#D2D3D5;}
	.st40{fill:#D3D4D6;}
	.st41{fill:#D4D5D7;}
	.st42{fill:#D5D6D7;}
	.st43{fill:#D5D7D8;}
	.st44{fill:#D6D7D9;}
	.st45{fill:#D7D8DA;}
	.st46{fill:#D8D9DB;}
	.st47{fill:#D9DADB;}
	.st48{fill:#D9DBDC;}
	.st49{fill:#DADCDD;}
	.st50{fill:#DBDCDE;}
	.st51{fill:#DCDDDE;}
	.st52{fill:#DDDEDF;}
	.st53{fill:#DEDFE0;}
	.st54{fill:#DEE0E1;}
	.st55{fill:#DFE0E2;}
	.st56{fill:#E0E1E2;}
	.st57{fill:#E1E2E3;}
	.st58{fill:#E2E3E4;}
	.st59{fill:#E3E4E5;}
	.st60{fill:#E4E5E6;}
	.st61{fill:#E5E6E7;}
	.st62{fill:#E6E7E8;}
	.st63{fill:#E7E8E9;}
	.st64{fill:#E8E8E9;}
	.st65{fill:#E9E9EA;}
	.st66{fill:#E9EAEB;}
	.st67{fill:#EAEBEC;}
	.st68{fill:#EBECED;}
	.st69{fill:#ECEDED;}
	.st70{fill:#EDEDEE;}
	.st71{fill:#EEEEEF;}
	.st72{fill:#EEEFF0;}
	.st73{fill:#EFF0F0;}
	.st74{fill:#F0F1F1;}
	.st75{fill:#F1F1F2;}
	.st76{fill:#F2F2F3;}
	.st77{fill:#F3F3F3;}
	.st78{fill:#F3F4F4;}
	.st79{fill:#F4F5F5;}
	.st80{fill:#F5F6F6;}
	.st81{fill:#F6F6F7;}
	.st82{fill:#F7F7F8;}
	.st83{fill:#F8F8F9;}
	.st84{fill:#F9F9FA;}
	.st85{fill:#FAFBFB;}
	.st86{fill:#FCFCFC;}
	.st87{fill:#FDFDFD;}
	.st88{fill:#FFFFFF;}
	.st89{fill:#32A5DD;}
	.st90{fill:#0096D7;}
</style>
<g>
	<g id="g35">
		<path id="path37" class="st0" d="M-19.2,297.7c0,65.4-53,118.3-118.3,118.3s-118.3-53-118.3-118.3s53-118.4,118.3-118.4
			S-19.2,232.2-19.2,297.7z"/>
		<path id="path39" class="st1" d="M-19.4,297.6c0,65.2-52.9,118-118,118s-118-52.9-118-118s52.9-118,118-118
			S-19.4,232.3-19.4,297.6z"/>
		<path id="path41" class="st1" d="M-19.6,297.5c0,65-52.7,117.7-117.6,117.7s-117.6-52.7-117.6-117.7c0-65,52.7-117.7,117.6-117.7
			S-19.6,232.5-19.6,297.5z"/>
		<path id="path43" class="st2" d="M-19.8,297.4c0,64.8-52.6,117.3-117.3,117.3s-117.3-52.6-117.3-117.3
			c0-64.9,52.6-117.3,117.3-117.3C-72.3,180.1-19.8,232.6-19.8,297.4z"/>
		<path id="path45" class="st3" d="M-20.1,297.4c0,64.6-52.4,116.9-117,116.9c-64.6,0-117-52.4-117-116.9c0-64.7,52.4-117,117-117
			C-72.4,180.4-20.1,232.7-20.1,297.4z"/>
		<path id="path47" class="st4" d="M-20.3,297.3c0,64.5-52.2,116.6-116.6,116.6s-116.6-52.2-116.6-116.6s52.2-116.6,116.6-116.6
			C-72.4,180.7-20.3,232.8-20.3,297.3z"/>
		<path id="path49" class="st5" d="M-20.5,297.2c0,64.3-52.1,116.2-116.3,116.2s-116.3-52.1-116.3-116.2
			c0-64.3,52.1-116.3,116.3-116.3C-72.5,180.9-20.5,233-20.5,297.2z"/>
		<path id="path51" class="st6" d="M-20.7,297.2c0,64.1-51.9,115.9-115.9,115.9s-115.9-51.9-115.9-115.9s51.9-115.9,115.9-115.9
			C-72.6,181.1-20.7,233.1-20.7,297.2z"/>
		<path id="path53" class="st7" d="M-21,297.1c0,63.9-51.8,115.5-115.6,115.5s-115.6-51.8-115.6-115.5
			c0-63.9,51.8-115.6,115.6-115.6C-72.6,181.4-21,233.2-21,297.1z"/>
		<path id="path55" class="st7" d="M-21.2,297c0,63.7-51.6,115.2-115.2,115.2S-251.6,360.6-251.6,297s51.6-115.2,115.2-115.2
			S-21.2,233.3-21.2,297z"/>
		<path id="path57" class="st8" d="M-21.3,297c0,63.5-51.5,115-115,115s-115-51.5-115-115s51.5-115,115-115
			C-72.7,181.9-21.3,233.4-21.3,297z"/>
		<path id="path59" class="st9" d="M-21.3,296.9c0,63.4-51.4,114.7-114.7,114.7s-114.7-51.4-114.7-114.7s51.4-114.7,114.7-114.7
			S-21.3,233.5-21.3,296.9z"/>
		<path id="path61" class="st10" d="M-21.4,296.8c0,63.3-51.3,114.5-114.5,114.5S-250.4,360-250.4,296.8s51.3-114.5,114.5-114.5
			C-72.6,182.3-21.4,233.5-21.4,296.8z"/>
		<path id="path63" class="st11" d="M-21.5,296.8c0,63.1-51.2,114.2-114.2,114.2s-114.2-51.2-114.2-114.2s51.2-114.2,114.2-114.2
			C-72.6,182.4-21.5,233.6-21.5,296.8z"/>
		<path id="path65" class="st12" d="M-21.6,296.7c0,63-51.1,114-114,114s-114-51.1-114-114s51.1-114,114-114
			C-72.5,182.6-21.6,233.7-21.6,296.7z"/>
		<path id="path67" class="st13" d="M-21.7,296.6c0,62.9-51,113.7-113.7,113.7c-62.9,0-113.7-51-113.7-113.7
			c0-62.9,51-113.7,113.7-113.7C-72.5,182.8-21.7,233.8-21.7,296.6z"/>
		<path id="path69" class="st14" d="M-21.7,296.6c0,62.7-50.9,113.5-113.5,113.5s-113.5-50.8-113.5-113.5
			c0-62.7,50.8-113.5,113.5-113.5C-72.5,183-21.7,233.8-21.7,296.6z"/>
		<path id="path71" class="st15" d="M-21.8,296.5c0,62.6-50.7,113.2-113.2,113.2S-248.2,359-248.2,296.5s50.7-113.2,113.2-113.2
			C-72.5,183.2-21.8,233.9-21.8,296.5z"/>
		<path id="path73" class="st16" d="M-21.9,296.5c0,62.5-50.6,113-113,113s-113-50.6-113-113s50.6-113,113-113
			C-72.4,183.4-21.9,234-21.9,296.5z"/>
		<path id="path75" class="st17" d="M-22,296.4c0,62.3-50.5,112.7-112.7,112.7s-112.7-50.5-112.7-112.7s50.5-112.7,112.7-112.7
			C-72.4,183.5-22,234.1-22,296.4z"/>
		<path id="path77" class="st18" d="M-22.1,296.3c0,62.2-50.4,112.5-112.5,112.5s-112.5-50.4-112.5-112.5s50.4-112.5,112.5-112.5
			S-22.1,234.1-22.1,296.3z"/>
		<path id="path79" class="st19" d="M-22.1,296.3c0,62-50.3,112.2-112.2,112.2c-62.1,0-112.2-50.3-112.2-112.2
			c0-62.1,50.3-112.3,112.2-112.3C-72.3,183.9-22.1,234.2-22.1,296.3z"/>
		<path id="path81" class="st20" d="M-22.2,296.2c0,61.9-50.2,112-112,112s-112-50.2-112-112s50.2-112,112-112
			S-22.2,234.3-22.2,296.2z"/>
		<path id="path83" class="st21" d="M-22.3,296.2c0,61.8-50.1,111.7-111.7,111.7c-61.8,0-111.8-50.1-111.8-111.7
			c0-61.8,50.1-111.8,111.8-111.8C-72.3,184.3-22.3,234.4-22.3,296.2z"/>
		<path id="path85" class="st22" d="M-22.4,296.1c0,61.6-50,111.5-111.5,111.5s-111.5-50-111.5-111.5s50-111.5,111.5-111.5
			C-72.2,184.5-22.4,234.4-22.4,296.1z"/>
		<path id="path87" class="st23" d="M-22.5,296c0,61.5-49.9,111.2-111.2,111.2c-61.5,0-111.3-49.9-111.3-111.2
			c0-61.5,49.9-111.3,111.3-111.3C-72.2,184.7-22.5,234.5-22.5,296z"/>
		<path id="path89" class="st24" d="M-22.5,296c0,61.4-49.7,111-111,111s-111-49.7-111-111s49.7-111,111-111
			C-72.2,184.8-22.5,234.6-22.5,296z"/>
		<path id="path91" class="st25" d="M-22.6,295.9c0,61.2-49.6,110.8-110.8,110.8c-61.2,0-110.8-49.6-110.8-110.8
			c0-61.2,49.6-110.8,110.8-110.8C-72.1,185-22.6,234.7-22.6,295.9z"/>
		<path id="path93" class="st26" d="M-22.7,295.8c0,61.1-49.5,110.5-110.5,110.5s-110.5-49.5-110.5-110.5s49.5-110.5,110.5-110.5
			S-22.7,234.7-22.7,295.8z"/>
		<path id="path95" class="st27" d="M-22.8,295.8c0,61-49.4,110.3-110.3,110.3s-110.3-49.4-110.3-110.3s49.4-110.3,110.3-110.3
			C-72.1,185.4-22.8,234.8-22.8,295.8z"/>
		<path id="path97" class="st28" d="M-22.8,295.7c0,60.8-49.3,110-110,110s-110-49.3-110-110s49.3-110,110-110
			C-72.1,185.6-22.8,234.9-22.8,295.7z"/>
		<path id="path99" class="st29" d="M-22.9,295.7c0,60.7-49.2,109.8-109.8,109.8s-109.8-49.2-109.8-109.8s49.2-109.8,109.8-109.8
			S-22.9,235-22.9,295.7z"/>
		<path id="path101" class="st30" d="M-23,295.6C-23,356-72,405.1-132.5,405.1c-60.6,0-109.6-49.1-109.6-109.5
			c0-60.6,49.1-109.5,109.5-109.5C-72,186-23,235-23,295.6z"/>
		<path id="path103" class="st31" d="M-23.1,295.5c0,60.4-49,109.3-109.3,109.3s-109.3-49-109.3-109.3s49-109.3,109.3-109.3
			C-72,186.1-23.1,235.1-23.1,295.5z"/>
		<path id="path105" class="st32" d="M-23.2,295.5c0,60.3-48.9,109-109,109c-60.3,0-109-48.9-109-109c0-60.3,48.9-109,109-109
			C-71.9,186.3-23.2,235.2-23.2,295.5z"/>
		<path id="path107" class="st33" d="M-23.2,295.4c0,60.1-48.8,108.8-108.8,108.8s-108.8-48.7-108.8-108.8
			c0-60.1,48.7-108.8,108.8-108.8C-71.9,186.5-23.2,235.3-23.2,295.4z"/>
		<path id="path109" class="st34" d="M-23.3,295.4c0,60-48.6,108.5-108.5,108.5s-108.5-48.6-108.5-108.5s48.6-108.6,108.5-108.6
			C-71.9,186.7-23.3,235.3-23.3,295.4z"/>
		<path id="path111" class="st35" d="M-23.4,295.3c0,59.9-48.5,108.3-108.3,108.3S-240,355.1-240,295.3s48.5-108.3,108.3-108.3
			C-71.8,186.9-23.4,235.4-23.4,295.3z"/>
		<path id="path113" class="st36" d="M-23.5,295.2c0,59.7-48.4,108-108,108s-108-48.4-108-108s48.4-108.1,108-108.1
			C-71.8,187.1-23.5,235.5-23.5,295.2z"/>
		<path id="path115" class="st37" d="M-23.6,295.2c0,59.6-48.3,107.8-107.8,107.8s-107.8-48.3-107.8-107.8s48.3-107.8,107.8-107.8
			S-23.6,235.6-23.6,295.2z"/>
		<path id="path117" class="st38" d="M-23.6,295.1c0,59.5-48.2,107.5-107.5,107.5c-59.5,0-107.6-48.2-107.6-107.5
			c0-59.5,48.2-107.6,107.6-107.6C-71.7,187.4-23.6,235.6-23.6,295.1z"/>
		<path id="path119" class="st39" d="M-23.8,295c0,59.3-48,107.2-107.2,107.2s-107.2-48-107.2-107.2s48-107.2,107.2-107.2
			S-23.8,235.7-23.8,295z"/>
		<path id="path121" class="st40" d="M-24,294.9c0,59.1-47.9,106.9-106.9,106.9s-106.9-47.9-106.9-106.9s47.9-106.9,106.9-106.9
			C-71.8,188-24,235.8-24,294.9z"/>
		<path id="path123" class="st41" d="M-24.1,294.8c0,58.9-47.7,106.5-106.5,106.5s-106.5-47.7-106.5-106.5
			c0-58.8,47.7-106.5,106.5-106.5C-71.8,188.2-24.1,236-24.1,294.8z"/>
		<path id="path125" class="st42" d="M-24.3,294.8c0,58.7-47.6,106.2-106.2,106.2s-106.2-47.6-106.2-106.2s47.6-106.2,106.2-106.2
			C-71.8,188.5-24.3,236.1-24.3,294.8z"/>
		<path id="path127" class="st43" d="M-24.5,294.7c0,58.5-47.4,105.8-105.8,105.8s-105.8-47.4-105.8-105.8s47.4-105.8,105.8-105.8
			C-71.8,188.7-24.5,236.2-24.5,294.7z"/>
		<path id="path129" class="st44" d="M-24.6,294.6c0,58.3-47.3,105.5-105.5,105.5s-105.5-47.3-105.5-105.5S-188.4,189-130.1,189
			C-71.8,189-24.6,236.3-24.6,294.6z"/>
		<path id="path131" class="st45" d="M-24.8,294.5c0,58.1-47.1,105.1-105.1,105.1S-235,352.5-235,294.5s47.1-105.1,105.1-105.1
			C-71.8,189.3-24.8,236.4-24.8,294.5z"/>
		<path id="path133" class="st46" d="M-25,294.4c0,57.9-47,104.8-104.8,104.8s-104.8-47-104.8-104.8s47-104.8,104.8-104.8
			C-71.8,189.5-25,236.5-25,294.4z"/>
		<path id="path135" class="st46" d="M-25.1,294.3c0,57.7-46.8,104.4-104.4,104.4s-104.4-46.8-104.4-104.4s46.8-104.4,104.4-104.4
			S-25.1,236.6-25.1,294.3z"/>
		<path id="path137" class="st47" d="M-25.3,294.2c0,57.5-46.6,104.1-104.1,104.1c-57.5,0-104.1-46.6-104.1-104.1
			S-187,190-129.4,190C-71.8,190.1-25.3,236.7-25.3,294.2z"/>
		<path id="path139" class="st48" d="M-25.4,294.2c0,57.3-46.5,103.7-103.7,103.7s-103.7-46.5-103.7-103.7
			c0-57.4,46.5-103.7,103.7-103.7C-71.8,190.3-25.4,236.8-25.4,294.2z"/>
		<path id="path141" class="st49" d="M-25.6,294.1c0,57.2-46.3,103.4-103.4,103.4s-103.4-46.3-103.4-103.4s46.3-103.4,103.4-103.4
			C-71.8,190.6-25.6,236.9-25.6,294.1z"/>
		<path id="path143" class="st50" d="M-25.8,294c0,57-46.2,103-103,103c-57,0-103-46.2-103-103c0-57,46.2-103,103-103
			C-71.9,190.8-25.8,237-25.8,294z"/>
		<path id="path145" class="st51" d="M-25.9,293.9c0,56.8-46,102.7-102.7,102.7s-102.7-46-102.7-102.7s46-102.7,102.7-102.7
			C-71.9,191.1-25.9,237.1-25.9,293.9z"/>
		<path id="path147" class="st52" d="M-26.1,293.8c0,56.6-45.9,102.3-102.3,102.3c-56.6,0-102.3-45.9-102.3-102.3
			c0-56.6,45.9-102.4,102.3-102.4C-71.9,191.4-26.1,237.2-26.1,293.8z"/>
		<path id="path149" class="st53" d="M-26.3,293.7c0,56.4-45.7,102-102,102s-102-45.7-102-102s45.7-102,102-102
			S-26.3,237.3-26.3,293.7z"/>
		<path id="path151" class="st54" d="M-26.4,293.6c0,56.2-45.6,101.6-101.6,101.6c-56.2,0-101.6-45.5-101.6-101.6
			s45.5-101.7,101.6-101.7C-71.9,191.9-26.4,237.4-26.4,293.6z"/>
		<path id="path153" class="st55" d="M-26.6,293.6c0,56-45.4,101.3-101.3,101.3s-101.3-45.4-101.3-101.3s45.4-101.3,101.3-101.3
			C-71.9,192.1-26.6,237.5-26.6,293.6z"/>
		<path id="path155" class="st56" d="M-26.8,293.5c0,55.8-45.2,101-101,101s-100.9-45.2-100.9-101c0-55.8,45.2-101,100.9-101
			S-26.8,237.6-26.8,293.5z"/>
		<path id="path157" class="st57" d="M-27,293.3c0,55.5-45,100.4-100.4,100.4s-100.4-45-100.4-100.4s45-100.4,100.4-100.4
			C-71.9,192.8-27,237.8-27,293.3z"/>
		<path id="path159" class="st58" d="M-27.2,293.2c0,55.2-44.7,99.8-99.8,99.8s-99.8-44.7-99.8-99.8s44.7-99.8,99.8-99.8
			S-27.2,238-27.2,293.2z"/>
		<path id="path161" class="st59" d="M-27.4,293.1c0,54.9-44.5,99.3-99.3,99.3s-99.3-44.5-99.3-99.3s44.5-99.3,99.3-99.3
			C-71.8,193.7-27.4,238.2-27.4,293.1z"/>
		<path id="path163" class="st59" d="M-27.6,293c0,54.6-44.2,98.7-98.7,98.7S-225,347.5-225,293s44.2-98.7,98.7-98.7
			S-27.6,238.4-27.6,293z"/>
		<path id="path165" class="st60" d="M-27.8,292.8c0,54.3-44,98.1-98.1,98.1c-54.3,0-98.1-44-98.1-98.1c0-54.3,44-98.2,98.1-98.2
			C-71.7,194.6-27.8,238.6-27.8,292.8z"/>
		<path id="path167" class="st61" d="M-28.1,292.7c0,53.9-43.7,97.6-97.6,97.6c-53.9,0-97.6-43.7-97.6-97.6s43.7-97.6,97.6-97.6
			C-71.7,195-28.1,238.7-28.1,292.7z"/>
		<path id="path169" class="st62" d="M-28.3,292.6c0,53.6-43.5,97-97,97s-97-43.5-97-97s43.5-97,97-97
			C-71.6,195.4-28.3,238.9-28.3,292.6z"/>
		<path id="path171" class="st63" d="M-28.5,292.4c0,53.3-43.2,96.5-96.5,96.5c-53.3,0-96.4-43.2-96.4-96.5
			c0-53.3,43.2-96.5,96.4-96.5C-71.6,195.9-28.5,239.1-28.5,292.4z"/>
		<path id="path173" class="st63" d="M-28.7,292.3c0,53-43,95.9-95.9,95.9s-95.9-43-95.9-95.9s43-95.9,95.9-95.9
			S-28.7,239.3-28.7,292.3z"/>
		<path id="path175" class="st64" d="M-28.9,292.2c0,52.7-42.7,95.3-95.3,95.3s-95.3-42.7-95.3-95.3s42.7-95.3,95.3-95.3
			C-71.5,196.7-28.9,239.5-28.9,292.2z"/>
		<path id="path177" class="st65" d="M-29.1,292c0,52.4-42.5,94.8-94.8,94.8s-94.8-42.5-94.8-94.8s42.5-94.8,94.8-94.8
			C-71.5,197.2-29.1,239.6-29.1,292z"/>
		<path id="path179" class="st66" d="M-29.3,291.9c0,52.1-42.2,94.2-94.2,94.2s-94.2-42.2-94.2-94.2s42.2-94.2,94.2-94.2
			C-71.5,197.6-29.3,239.8-29.3,291.9z"/>
		<path id="path181" class="st67" d="M-29.6,291.8c0,51.8-42,93.6-93.6,93.6c-51.8,0-93.6-42-93.6-93.6c0-51.8,42-93.7,93.6-93.7
			C-71.4,198-29.6,240-29.6,291.8z"/>
		<path id="path183" class="st68" d="M-29.8,291.7c0,51.5-41.7,93.1-93.1,93.1s-93.1-41.7-93.1-93.1s41.7-93.1,93.1-93.1
			C-71.4,198.5-29.8,240.2-29.8,291.7z"/>
		<path id="path185" class="st69" d="M-30,291.5c0,51.1-41.5,92.5-92.5,92.5s-92.5-41.5-92.5-92.5c0-51.2,41.5-92.5,92.5-92.5
			C-71.3,198.9-30,240.4-30,291.5z"/>
		<path id="path187" class="st70" d="M-30.2,291.4c0,50.8-41.2,92-92,92c-50.8,0-91.9-41.2-91.9-92s41.2-92,91.9-92
			C-71.3,199.3-30.2,240.6-30.2,291.4z"/>
		<path id="path189" class="st71" d="M-30.8,291.2c0,50.2-40.7,90.9-90.9,90.9c-50.2,0-90.9-40.7-90.9-90.9s40.7-90.9,90.9-90.9
			S-30.8,240.9-30.8,291.2z"/>
		<path id="path191" class="st72" d="M-31.4,291c0,49.6-40.2,89.8-89.8,89.8c-49.6,0-89.8-40.2-89.8-89.8s40.2-89.8,89.8-89.8
			C-71.6,201.1-31.4,241.3-31.4,291z"/>
		<path id="path193" class="st73" d="M-32,290.8c0,49-39.7,88.7-88.7,88.7c-49,0-88.7-39.8-88.7-88.7s39.8-88.7,88.7-88.7
			C-71.7,202-32,241.7-32,290.8z"/>
		<path id="path195" class="st74" d="M-32.6,290.6c0,48.4-39.3,87.6-87.6,87.6s-87.6-39.3-87.6-87.6s39.3-87.6,87.6-87.6
			C-71.8,202.8-32.6,242.1-32.6,290.6z"/>
		<path id="path197" class="st75" d="M-33.3,290.3c0,47.8-38.8,86.5-86.5,86.5s-86.5-38.8-86.5-86.5s38.8-86.5,86.5-86.5
			C-71.9,203.7-33.3,242.5-33.3,290.3z"/>
		<path id="path199" class="st76" d="M-33.9,290.1c0,47.2-38.3,85.4-85.4,85.4s-85.4-38.3-85.4-85.4s38.3-85.4,85.4-85.4
			S-33.9,242.9-33.9,290.1z"/>
		<path id="path201" class="st77" d="M-34.5,289.9c0,46.6-37.8,84.3-84.3,84.3s-84.3-37.8-84.3-84.3s37.8-84.4,84.3-84.4
			C-72.2,205.5-34.5,243.3-34.5,289.9z"/>
		<path id="path203" class="st78" d="M-35.1,289.7c0,46-37.3,83.3-83.2,83.3s-83.2-37.3-83.2-83.3c0-46,37.3-83.3,83.2-83.3
			S-35.1,243.7-35.1,289.7z"/>
		<path id="path205" class="st78" d="M-35.7,289.5c0,45.4-36.8,82.2-82.2,82.2c-45.4,0-82.2-36.8-82.2-82.2
			c0-45.4,36.8-82.2,82.2-82.2S-35.7,244-35.7,289.5z"/>
		<path id="path207" class="st79" d="M-36.3,289.3c0,44.8-36.3,81.1-81.1,81.1c-44.8,0-81.1-36.3-81.1-81.1
			c0-44.8,36.3-81.1,81.1-81.1C-72.6,208.1-36.3,244.4-36.3,289.3z"/>
		<path id="path209" class="st80" d="M-36.9,289.1c0,44.2-35.9,80-80,80s-80-35.9-80-80s35.9-80,80-80
			C-72.7,209-36.9,244.8-36.9,289.1z"/>
		<path id="path211" class="st81" d="M-37.7,288.8c0,43.4-35.2,78.4-78.4,78.4c-43.4,0-78.4-35.2-78.4-78.4
			c0-43.4,35.2-78.5,78.4-78.5S-37.7,245.4-37.7,288.8z"/>
		<path id="path213" class="st82" d="M-38.5,288.4c0,42.5-34.5,76.9-76.9,76.9s-76.9-34.5-76.9-76.9s34.5-76.9,76.9-76.9
			C-72.8,211.4-38.5,245.9-38.5,288.4z"/>
		<path id="path215" class="st83" d="M-39.2,288.1c0,41.7-33.8,75.4-75.4,75.4s-75.4-33.8-75.4-75.4s33.8-75.4,75.4-75.4
			C-72.9,212.7-39.2,246.4-39.2,288.1z"/>
		<path id="path217" class="st84" d="M-40,287.8c0,40.8-33.1,73.8-73.8,73.8s-73.8-33.1-73.8-73.8s33.1-73.8,73.8-73.8
			S-40,247-40,287.8z"/>
		<path id="path219" class="st85" d="M-40.8,287.5c0,40-32.4,72.3-72.3,72.3s-72.3-32.4-72.3-72.3s32.4-72.3,72.3-72.3
			C-73.1,215.1-40.8,247.5-40.8,287.5z"/>
		<path id="path221" class="st85" d="M-41.5,287.2c0,39.1-31.7,70.7-70.8,70.7c-39.1,0-70.7-31.7-70.7-70.7s31.7-70.8,70.7-70.8
			C-73.1,216.4-41.5,248.1-41.5,287.2z"/>
		<path id="path223" class="st86" d="M-42.6,287c0,38.3-31.1,69.3-69.3,69.3s-69.3-31.1-69.3-69.3s31.1-69.3,69.3-69.3
			C-73.5,217.6-42.6,248.6-42.6,287z"/>
		<path id="path225" class="st87" d="M-43.6,286.8c0,37.5-30.4,67.9-67.9,67.9c-37.5,0-67.9-30.4-67.9-67.9
			c0-37.5,30.4-67.9,67.9-67.9C-73.9,218.8-43.6,249.2-43.6,286.8z"/>
		<path id="path227" class="st87" d="M-44.6,286.5c0,36.7-29.8,66.4-66.4,66.4s-66.4-29.8-66.4-66.4c0-36.8,29.8-66.4,66.4-66.4
			S-44.6,249.8-44.6,286.5z"/>
		<path id="path229" class="st88" d="M-45.7,286.3c0,35.9-29.1,65.1-65.1,65.1c-35.9,0-65.1-29.1-65.1-65.1s29.1-65.1,65.1-65.1
			C-74.7,221.2-45.7,250.3-45.7,286.3z"/>
	</g>
	<g id="g5">
		<path id="path7" d="M-67.6,535.2l-14-14.5c-0.4-0.3-0.6-1-0.2-1.6l10.7-18c0.2-0.5,0.3-0.8,0.3-1c0-1.1-0.9-2.1-2.1-2.1h-7.8
			c-0.8,0-1.5,0.4-1.9,1.1l-6.8,11.7c-0.3,0.5-1,0.6-1.5,0.2l-10.9-11.2c-0.2-0.2-0.3-0.4-0.3-0.7c0-0.3,0.1-0.6,0.3-0.8l0.1-0.1
			c6.2-3.6,13.2-8.9,13.2-18.2c0-10.7-7.7-17.9-19.1-17.9c-11.2,0-19.7,7.5-19.7,18.7c0,4.9,2.1,9.8,6.3,15l0.1,0.1
			c0.2,0.2,0.3,0.5,0.2,0.8c0,0.3-0.2,0.5-0.4,0.7c-9.3,5.3-14,12.3-14,20.9c0,14.6,12.2,22.2,24.2,22.2c8.3,0,14.7-3.2,20.9-10.3
			l0.1-0.2c0.4-0.4,1.1-0.4,1.5,0.1l7.5,7.8l0.2,0.2c0.4,0.4,0.9,0.6,1.5,0.6h9.9c1.2,0,2.1-0.9,2.1-2.1
			C-67,536.1-67.2,535.6-67.6,535.2L-67.6,535.2z M-107.2,473c4.7,0,7.2,3.2,7.2,7.2c0,4.6-4.1,7.3-9.1,10.1l-0.3,0.1
			c-0.4,0.2-0.9,0.1-1.2-0.2l-0.1-0.1c-2.2-2.4-4.7-6.1-4.7-8.9C-115.4,476.6-112.1,473-107.2,473z M-97.2,522.4L-97.2,522.4
			c-3.7,4.4-7.6,7.2-13.4,7.2c-6.9,0-12.2-4.9-12.2-11.2c0-5.6,2.4-8.9,9.4-13.1c0.5-0.3,1-0.2,1.4,0.1l14.7,15.4
			c0.3,0.3,0.4,0.5,0.4,0.8l0,0C-96.9,521.9-97,522.1-97.2,522.4z"/>
		<path id="path9" d="M-144.2,529.5h-0.4c-11.3,0-17-6-17-17.7v-34.6c0-0.6,0.5-1.1,1.1-1.1h17.6c1.2,0,2.1-1,2.1-2.1v-7.7
			c0-1.2-1-2.1-2.1-2.1h-17.6c-0.6,0-1.2-0.5-1.2-1.1v-15.9c0.1-1.1-0.8-2.1-2-2.2h-0.2l-9,0.7c-1.1,0-2.1,0.9-2.1,2.1v15.3
			c0,0.6-0.5,1.1-1.1,1.1h-11.1c-1.2,0-2.1,0.9-2.1,2.1v7.7c0,0.6,0.2,1.1,0.7,1.5c0.4,0.4,0.9,0.6,1.5,0.6h11
			c0.6,0,1.1,0.5,1.1,1.1v36.9c0,19.8,14.9,26.9,28,26.9c0,0,1.6,0,2.7-0.1c1.2-0.1,2.1-0.9,2.1-2.1v-7.3
			C-142.1,530.4-143.1,529.5-144.2,529.5z"/>
		<path id="path11" d="M-194.7,535.8c-0.7-2-0.9-4.2-1-5.2c0-0.7-0.1-3.6-0.1-3.6v-36.6c0-19.3-13.7-26.2-26.5-26.2
			c-10.1,0-19.4,2.6-25.3,6.6c-0.5,0.3-0.8,0.8-0.9,1.3c-0.1,0.5,0,1.1,0.3,1.5c0,0.1,4.7,6.4,4.7,6.4c0.7,0.9,2,1.1,2.9,0.5
			l0.6-0.4c4.6-2.9,10.1-4.6,15.7-4.6c15.8,0,15.3,12.4,15.3,14c0,0.8-0.5,1-1.1,1l-2.4-0.1c-12.3-0.5-43.3,3.7-43.3,28.4
			c0,14.5,12.1,21.8,23.3,21.8c10.9,0,19.7-4.3,24-9.6v-0.1c0.1-0.1,0.1-0.1,0.2-0.1c0.1,0,0.3,0.1,0.3,0.3c0,0.7,0,2.2,0.1,3.5
			c0.1,1.2,0.3,2.1,0.5,2.7s0.5,1.2,1.1,1.4c0.3,0.1,0.6,0.2,0.9,0.2h8.8c1.1,0,2.1-0.9,2.1-2C-194.4,536.7-194.7,535.8-194.7,535.8
			z M-208.2,507.1c-1.8,12.6-8,19.9-19.5,21.8c-8.1,1.3-15.4-2-15.8-10.7c-0.4-9.5,10.6-17.5,31-16.6c0,0,1.5,0.1,2.5,0.2
			c0.9,0.1,1.4,0.4,1.8,0.9C-207.8,503.2-207.8,504.3-208.2,507.1z"/>
		<path id="path13" d="M-25.6,529.5h-0.5c-11.2,0-17-6-17-17.7v-34.6c0-0.6,0.5-1.1,1.1-1.1h17.7c1.2,0,2.1-1,2.1-2.1v-7.7
			c0-1.2-1-2.1-2.1-2.1h-17.6c-0.6,0-1.2-0.5-1.2-1.1v-15.9c0.1-1.1-0.8-2.1-2-2.2h-0.2l-9,0.7c-1.1,0-2.1,0.9-2.1,2.1v15.3
			c0,0.6-0.5,1.1-1.1,1.1h-11.1c-1.2,0-2.1,0.9-2.1,2.1v7.7c0,0.6,0.3,1.1,0.7,1.5c0.4,0.4,0.9,0.6,1.5,0.6h11
			c0.6,0,1.1,0.5,1.1,1.1v36.9c0,19.8,14.9,26.9,28,26.9c0,0,1.6,0,2.7-0.1c1.2-0.1,2.1-0.9,2.1-2.1v-7.3
			C-23.5,530.4-24.5,529.5-25.6,529.5z"/>
	</g>
	<path id="path21" class="st89" d="M-246.3,258.6c0-5,0.7-8.5,2.1-11.7c2.3-4.7,4.8-9.1,7.7-13.5c-0.7,1.2-1.2,2.6-1.2,4.3
		c0,10.9,26.6,25,63,29.6c12.3,1.6,44.9,6,70.1,3.9c51-4.2,62.3-22,62.3-33.6c0-3.2-1.7-7.8-3.4-10.5c2.3,3.1,4.5,6.2,6.5,9.5
		c3.9,6.8,3.4,9.5,3.4,10.7c0,23.6-44,39-73.3,47.1C-184.8,315.1-246.3,287.1-246.3,258.6z M-222.2,225.5
		c0,10.7,15.5,27.7,60.4,27.7c26.6,0,48.1-5.2,64.4-10.6c26-8.6,38.9-19.2,38.4-27.1c-0.1-1.2-0.6-3.2-2-4.8
		c-5.8-5.2-12.1-9.8-18.8-13.7c4.4,2.6,7,5.6,7,8.9c0,11.7-28.7,22.5-66,23.5c-37.4,1-68.4-8.2-69.2-20c-0.3-3.9,2.5-7.7,7.8-11.1
		c-4,2.5-7.9,5.2-11.6,8.2C-222.4,215.2-222.2,224.4-222.2,225.5z M-124.8,363c-22.8,0.8-62.9-7-88.1-17.4
		c-20.3-8.3-40.5-24.5-42.6-39.9c0.2,3.7,0.7,7.4,1.3,11c12.5,67.9,98.1,64.1,112.8,62.5c107.7-12,117-58,118.4-67
		c0.2-1.9,0.4-3.8,0.6-5.7C-24.4,318.5-42.7,360-124.8,363z M-206.7,378.5c-19.3-8-32.7-21.3-38.1-31c5,10.5,11.4,20.2,19.1,28.7
		c25.2,23.7,64,26.5,81.6,26.5c75.2,0,102.2-39.6,108.2-50.2c1.1-2.1,2.2-4.3,3.2-6.5C-44.5,370.6-106.3,420-206.7,378.5z
		 M-24.4,279.6c0-1.9-0.2-5.6-1.1-9.5c-0.6-2.6-1.4-5.2-2.2-7.7c1.4,4.8,1.2,8.1,1.2,9.4c0,5.8-7.2,41.3-77.9,47.7
		c-6.1,0.6-51.1,1.2-90.2-8.6c-26-6.6-52.2-19.3-57.1-37c-0.8-2.8-0.4-5.3,0.2-7.7l0,0c-2,7.1-3.3,14.4-3.9,22
		c0.5,18.6,16.6,40.3,46.2,49.6c33.8,10.6,54.6,11,103.6,0C-23.7,319.5-24.4,283.6-24.4,279.6z"/>
	<path id="path23" class="st90" d="M-109.3,294.6c2-0.5,4-1.1,6.2-1.7c-9.1-1.9-18.7-3-28.7-3c-18.9,0-36.6,3.8-51.5,10.3
		C-162,303.1-136.6,302-109.3,294.6z M-119,248.6c8-1.7,15.1-3.8,21.5-5.9c3.5-1.2,6.7-2.3,9.7-3.6c-8.9-1.6-16.9-2.7-22.2-3.2
		c-20.4-1.9-50.7,3.9-58.6,5.6c-2.4,0.5-13.5,2.8-27,7.5c3.2,0.9,6.7,1.8,10.5,2.4c12.2-3.4,24.9-5.4,36.9-5.4
		C-140.2,246-130.1,246.9-119,248.6z M-116.6,319.7c-7.4,0-17.5-0.3-28.9-1.2c-20.2,2.4-37.4,11.4-47.1,23.9
		c3.2,0.7,6.4,1.4,9.6,1.9c10.3-11.3,27.7-18.7,47.5-18.7c14.4,0,27.6,4,37.7,10.5c3.9-1,7.6-2,11.2-3.1
		C-94.9,326.7-105.1,322.1-116.6,319.7z M-50.4,269.9c5.9-4.4,10.4-9.2,12.7-14.5c-2.8-1.8-6-3.4-9.5-4.9
		c-3.4,4.4-9.1,8.8-17.8,12.4C-59.9,265.1-55,267.4-50.4,269.9z M-76.2,283.7c6.2-2.5,12.2-5.3,17.6-8.4c-5.6-3-12.1-5.7-19.7-8
		c-7.3,1.8-16,3.2-26.4,4.1c-3.1,0.3-6.3,0.4-9.5,0.5c7.2,1.4,14.1,3.2,20.7,5.4C-87.1,279.3-81.4,281.5-76.2,283.7z M-62.5,310.2
		c-5.2,2.1-11.2,4-18,5.6c4.9,3,9.4,6.4,13.2,10.1c5.5-2.4,10.4-4.9,14.6-7.4C-55.7,315.4-58.9,312.6-62.5,310.2z M-215.1,257.1
		c-9.1,4.5-18.1,10-25.3,16.8c1.1,1.4,2.3,2.8,3.7,4.1c7.9-6.9,17.8-13.1,28.7-18.2C-210.5,259-212.8,258-215.1,257.1z
		 M-186.1,312.8c-2.9-0.6-5.8-1.3-8.6-2c-1.8-0.5-3.6-1-5.4-1.5c-9.5,6.6-17,14.5-21.9,23.3c3,1.5,6.2,2.9,9.6,4.1
		c2.8-5,6.6-9.7,11.2-13.8C-196.8,319-191.8,315.6-186.1,312.8z M-218.7,360.7c0-5.6,1-11.1,2.9-16.4c-3.2-1.4-6.3-3-9.3-4.7
		c-2,5.4-3.1,11-3.1,16.8c0,1.1,0.1,2.3,0.1,3.4c3.1,2.3,6.4,4.4,9.8,6.2C-218.6,364.3-218.7,362.5-218.7,360.7z M-155.3,269.7
		c-8.3-0.9-15.2-1.8-19.6-2.3c-2.8-0.4-5.6-0.8-8.3-1.2c-15.7,5-29.5,12.5-40.3,21.5c2.2,1.2,4.5,2.4,7,3.5
		C-200.7,279.7-179.4,271.9-155.3,269.7z M-188.1,385.3c-3.2-1-6.5-2.1-9.8-3.4c2.7,5.7,6.7,10.9,11.9,15.3
		c4.3,1.2,8.6,2.1,12.7,2.9C-179.6,396.1-184.7,391-188.1,385.3z M-27.2,264.1c-0.1-0.4-0.2-0.8-0.4-1.2c0.1,0.3,0.2,0.6,0.2,0.9
		C-27.3,263.9-27.2,264-27.2,264.1z M-240,319.9c2.9-7.5,7.6-14.4,13.9-20.7c-2.1-1.1-4.1-2.2-6-3.4c-5.5,6-9.7,12.5-12.4,19.1
		C-243.1,316.6-241.6,318.3-240,319.9z M-45.9,301.2c2.8,2.3,5.1,4.6,7.1,6.9c2.9-2.7,5.2-5.4,7-7.9c-1.4-2.4-3-4.7-4.9-7.1
		C-39.1,295.7-42.1,298.5-45.9,301.2z M-227,366.8c1,4.2,2.6,8.4,4.7,12.3c4.2,3.5,8.6,6.4,13.2,9c-3.4-4.5-5.9-9.4-7.6-14.5
		C-220.4,371.5-223.9,369.2-227,366.8z M-91,394.7c5.5-1.9,10.5-4,15.1-6.2c1.8-2.5,3.2-5,4.4-7.7c-3.8,1.9-7.9,3.7-12.2,5.3
		C-85.7,389.2-88.1,392.1-91,394.7z M-80.5,356.5c1.1,2.8,1.7,5.7,2,8.7c3.4-1.3,6.6-2.6,9.6-4c-0.4-2.7-1.1-5.3-2.1-7.9
		C-74,354.5-77.1,355.5-80.5,356.5z M-59.8,219.1c-5.4-1.9-11.8-3.2-18.9-4.2c-8.3,6.4-25.2,11.6-46.1,13.6
		c13.2,1.3,29.2,3.6,44.5,7.2C-68.6,230.1-61.9,224.3-59.8,219.1z M-207.2,212.7c-5.2,2.2-10,4.5-14,6.7c-0.7,2.2-0.9,3.9-1,5
		c5.2-2.7,11.3-5.4,18.2-8C-205.4,215.2-206.5,214-207.2,212.7z M-247.6,282.2c-3,4.2-5.4,8.8-6.7,13.7c0.4,1.5,0.8,3,1.4,4.6
		c1.8-5,4.7-9.8,8.5-14.4C-245.7,284.8-246.7,283.5-247.6,282.2z M-243.2,337.1c0-3.3,0.4-6.6,1.1-9.8c-1.7-1.6-3.3-3.2-4.7-4.8
		c-1.1,4.7-1.4,9.5-0.8,14.3c1.5,3,3.3,5.8,5.1,8.5C-243,342.5-243.2,339.8-243.2,337.1z M-213.8,239.9
		c12.3-5.6,27.5-10.1,45.3-11.9c-6.1-0.8-11.7-1.9-16.7-3.2c-11.7,3.2-22.7,7.1-32.3,11.6C-216.4,237.6-215.2,238.7-213.8,239.9z
		 M-38.2,340.5c-0.6-1.8-1.3-3.5-2.2-5.2c-3.8,3.4-8.2,6.8-13.6,10c0.8,2.2,1.5,4.4,2,6.6C-46.3,348.1-41.8,344.2-38.2,340.5z
		 M-25.6,315.7c-1.1,2.4-2.5,5-4.4,7.7c0.5,1.7,0.8,3.3,1,4.9c1.9-3.3,3.2-6.3,4.1-8.9C-25.1,318.2-25.3,317-25.6,315.7z
		 M-25.5,270.4c-0.3-1.1-0.5-2.2-0.8-3.3c-0.2-0.4-0.3-0.8-0.5-1.1c0.5,2.9,0.4,5,0.4,5.9c0,1.9-0.8,7-4.3,13.2
		c1.6,1.9,3,3.8,4.2,5.8c2.2-5.8,2.2-10,2.2-11.2C-24.4,277.8-24.7,274.1-25.5,270.4z M-193,368.1c0-5.1,1.2-10.1,3.5-14.7
		c-2.9-0.8-5.7-1.6-8.5-2.5c-2.2,4.8-3.4,10-3.4,15.4c0,2.4,0.2,4.8,0.7,7.1c2.9,0.9,5.8,1.7,8.7,2.4
		C-192.7,373.3-193,370.7-193,368.1z M-51.7,368.1c-0.3,1.7-0.7,3.3-1.2,5c9.5-8.5,14.7-16.5,17-20.5c0.1-0.1,0.2-0.3,0.2-0.4
		c0-0.3-0.1-0.6-0.1-0.8C-39.2,356.5-44.6,362.4-51.7,368.1z M-73.1,204.5c4.7,1.9,8.9,4.3,12.7,7.1c-0.2-0.3-0.4-0.6-0.6-0.9
		c-3.8-3.4-7.7-6.5-11.9-9.4c-1.1-0.7-2.2-1.3-3.3-1.9C-74.5,201.1-73.4,202.8-73.1,204.5z M-236.6,233.6c-0.3,0.5-0.7,1-1,1.5
		c0.2-0.2,0.4-0.4,0.6-0.7C-236.9,234.2-236.8,233.9-236.6,233.6z M-45.3,247.7c3.1,1.6,6,3.4,8.5,5.3c0.5-1.8,0.8-3.6,0.8-5.5
		c0-1.2,0.5-3.8-3.3-10.4c-2-3.3-4.2-6.5-6.5-9.6l-0.1-0.1c1.7,2.7,3.4,7.2,3.4,10.4C-42.5,240.8-43.3,244.2-45.3,247.7z
		 M-230,248.9c-1.5-1.1-2.7-2.2-3.8-3.3c-5,3.5-9.3,7.2-12.4,11.2c0,0.6,0,1.3,0,1.9c0,1.2,0.1,2.5,0.4,3.7
		C-242,258-236.7,253.3-230,248.9z M-244.7,347.6c2.7,5.8,5.9,11.3,9.5,16.5c-1.9-3.1-3.5-6.3-4.8-9.7
		C-242,352-243.6,349.7-244.7,347.6z M-251.6,266.4c-0.7,2.6-1.4,5.3-1.9,8c0.3-1,0.8-2.2,1.4-3.4
		C-252.2,269.4-251.9,267.9-251.6,266.4z M-254.8,309.2c-0.3-1.1-0.6-2.3-0.8-3.4c0.2,2.9,0.5,5.7,0.9,8.5
		C-254.9,312.5-254.9,310.9-254.8,309.2z"/>
</g>
</svg>
