<?xml version="1.0" encoding="utf-8"?>
<!-- Generator: Adobe Illustrator 19.0.0, SVG Export Plug-In . SVG Version: 6.00 Build 0)  -->
<svg version="1.1" id="Layer_1" xmlns="http://www.w3.org/2000/svg" xmlns:xlink="http://www.w3.org/1999/xlink" x="0px" y="0px"
	 viewBox="0 0 500 500" style="enable-background:new 0 0 500 500;" xml:space="preserve">
<style type="text/css">
	.st0{fill:#800033;}
</style>
<g id="XMLID_1_">
	<polygon id="XMLID_3_" class="st0" points="67,224.6 92.2,224.6 92.2,241.7 92.4,241.7 111.6,224.6 139.9,224.6 116.7,245.6 
		143.5,274.4 111.6,274.4 92.4,254 92.2,254 92.2,274.4 67,274.4 	"/>
	<path id="XMLID_6_" class="st0" d="M179.9,265.7c11.2,0,10.5-12.5,10.5-16.6s0.1-15.6-10.5-15.6c-10.6,0-10.5,11.5-10.5,15.6
		S168.7,265.7,179.9,265.7 M179.9,223.2c28.6,0,36.4,6,36.4,26.4c0,20.4-7.8,26.4-36.4,26.4c-28.6,0-36.4-6-36.4-26.4
		C143.5,229.2,151.3,223.2,179.9,223.2"/>
	<polygon id="XMLID_7_" class="st0" points="270.7,255.7 270.7,274.7 296.5,274.7 296.5,224.9 270.7,224.9 270.7,242 252.1,242 
		252.1,224.9 226.2,224.9 226.2,274.7 252.1,274.7 252.1,255.7 	"/>
	<path id="XMLID_8_" class="st0" d="M308.8,224.9h26.5v37.9c0,0,21.1,0.1,23.9,0.1c2.8,0,4.5-2.5,4.5-2.5v14.3h-54.9V224.9z"/>
	<path id="XMLID_9_" class="st0" d="M425.4,241.4c-5.5-4.4-10.2-5.9-15.2-5.9c-4.9-0.1-9.4,1.6-9.4,4.6c0,2.4,3.4,3.4,15.2,5.8
		c9.7,2,16.1,7,16.1,16.2c0,10.4-17.3,16.3-32.8,16.3c-10.9,0-19.2-2-26.6-5.3v-13.9c4.6,4.8,14.9,7.4,22.8,7.4
		c4.4,0,6.5-0.6,6.5-4.1c0-2.2-2.7-4.1-11-5.6c-15.7-2.9-21-7.4-21-15c0-11,13.7-17.6,30.6-17.6c9.1,0,17.5,0.3,24.8,3.7V241.4
		L425.4,241.4z"/>
	<path id="XMLID_10_" class="st0" d="M348.9,245.2l1.8-3.2c-5.5-2.7-7.1-9.6-4.3-13.5c3-4.2,11.3-6,15.7,0.5
		c3.8,5.6,0.2,10.3-1.5,11.6C359,242,348.9,245.2,348.9,245.2"/>
</g>
</svg>
